<?xml version="1.0" encoding="UTF-8" standalone="no"?>
<!-- Created with Inkscape (http://www.inkscape.org/) -->

<svg
   width="211.66666mm"
   height="27.422775mm"
   viewBox="0 0 211.66666 27.422776"
   version="1.1"
   id="svg8">
  <defs
     id="defs2" />
  <sodipodi:namedview
     id="base"
     pagecolor="#ffffff"
     bordercolor="#666666"
     borderopacity="1.0"
     showgrid="false" />
  <g
     id="layer1"
     transform="translate(7.078689e-7,-269.57722)">
    <g
       id="g3710"
       transform="matrix(1.2476103,0,0,1.2476103,-22.230591,259.35458)">
      <path
         style="display:inline;opacity:0;fill:#fcfcfc;stroke-width:0.05890891"
         d="M 17.818537,19.187504 V 8.2009916 h 84.828833 84.82884 V 19.187504 30.174016 H 102.64737 17.818537 Z"
         id="path3716"
         mask="none" />
      <path
         style="display:inline;fill:#d07128;stroke-width:0.05890891"
         d="m 163.18686,30.017686 c -0.022,-0.02202 -0.0396,-4.310193 -0.039,-9.529277 8.3e-4,-7.887353 0.0149,-9.554648 0.0831,-9.876681 0.19434,-0.9167288 0.68813,-1.6161956 1.39079,-1.9700475 0.96726,-0.4871065 2.84609,-0.500851 3.86982,-0.02831 0.99539,0.4594658 1.61002,1.0928267 4.23029,4.3592425 0.74074,0.923398 1.99613,2.487429 2.78977,3.475626 0.79363,0.988197 2.14548,2.671519 3.00409,3.740716 2.61931,3.261703 2.71659,3.379935 3.21002,3.901465 0.62933,0.66516 0.96144,0.804147 1.29486,0.541882 l 0.15522,-0.122093 V 16.499 c 0,-5.409675 0.0198,-8.0482115 0.061,-8.1251544 0.0584,-0.1092083 0.14385,-0.1139451 2.05459,-0.1139451 1.62131,0 2.0062,0.015152 2.06096,0.081136 0.05,0.060299 0.0632,2.5224715 0.0512,9.5874255 l -0.0161,9.506289 -0.13223,0.465309 c -0.17291,0.608458 -0.47764,1.144262 -0.82491,1.450414 -0.58386,0.51473 -1.02841,0.647248 -2.31244,0.689325 -1.80881,0.05927 -2.25074,-0.108079 -3.447,-1.305297 -0.92299,-0.923735 -1.0347,-1.05641 -3.94642,-4.687013 -1.26025,-1.571395 -2.71835,-3.387263 -3.24023,-4.035261 -0.52188,-0.647998 -1.58939,-1.973448 -2.37223,-2.945445 -1.71158,-2.125119 -2.74514,-3.31753 -2.93972,-3.391506 -0.1657,-0.063 -0.49402,-0.07186 -0.63652,-0.01718 -0.0537,0.02062 -0.1288,0.106773 -0.16682,0.191454 -0.0513,0.114309 -0.0767,2.217487 -0.0986,8.165577 l -0.0294,8.011612 -2.00705,0.01549 c -1.10388,0.0085 -2.02507,-0.0025 -2.04709,-0.02455 z M 69.187109,29.823108 c -1.042387,-0.133185 -1.615644,-0.461823 -1.942027,-1.113333 -0.247758,-0.494563 -0.294397,-0.926301 -0.295489,-2.735313 l -10e-4,-1.695925 0.515453,0.01702 0.515453,0.01702 0.02945,1.827968 c 0.02924,1.81461 0.03055,1.83009 0.179035,2.118412 0.112592,0.218622 0.215874,0.324561 0.417667,0.428407 0.353513,0.181924 0.962582,0.267179 1.592876,0.222965 0.921572,-0.06465 1.267254,-0.241442 1.502961,-0.768673 0.09216,-0.206145 0.107858,-0.462342 0.125435,-2.047085 l 0.02009,-1.811449 h 0.530124 0.530125 L 72.885,26.124028 c -0.02068,1.711501 -0.03146,1.86868 -0.153311,2.236058 -0.332396,1.002167 -1.058232,1.424191 -2.556989,1.486718 -0.332575,0.01388 -0.776991,0.0032 -0.987591,-0.0237 z M 58.28896,29.726079 c -0.736393,-0.197122 -1.21271,-0.56557 -1.490639,-1.153064 -0.228104,-0.482173 -0.292108,-0.825212 -0.294809,-1.580081 -0.0036,-1.008718 0.230701,-1.690479 0.743414,-2.163082 0.562123,-0.518147 1.097229,-0.662499 2.455848,-0.662499 1.303961,0 1.948584,0.166518 2.492141,0.643767 0.246684,0.216591 0.538341,0.754213 0.657649,1.212265 0.106792,0.410003 0.119524,1.41536 0.02362,1.865011 -0.210332,0.98613 -0.785552,1.595294 -1.741526,1.844293 -0.463673,0.120772 -2.386517,0.116305 -2.845696,-0.0066 z m 2.207222,-0.850809 c 0.866945,-0.125288 1.216331,-0.492318 1.329211,-1.396337 0.113285,-0.907263 -0.06902,-1.697973 -0.46909,-2.034612 -0.314616,-0.264732 -0.542355,-0.307017 -1.653529,-0.307017 -1.027633,0 -1.032028,5.89e-4 -1.384359,0.176726 -0.312276,0.156138 -0.374042,0.217413 -0.53018,0.525963 -0.170527,0.336983 -0.176727,0.377284 -0.176727,1.148723 0,0.708592 0.01532,0.832732 0.134795,1.091881 0.167149,0.362572 0.275333,0.484209 0.559776,0.629381 0.402167,0.205257 1.395048,0.280192 2.190103,0.165292 z m 43.034828,0.850809 c -0.71984,-0.192691 -1.1601,-0.52556 -1.45013,-1.096411 -0.24649,-0.485166 -0.31568,-0.837106 -0.31644,-1.60963 -10e-4,-1.036003 0.17043,-1.594214 0.64922,-2.113633 0.51684,-0.560709 1.13337,-0.738529 2.56592,-0.740076 1.38301,-0.0015 2.0704,0.201078 2.57406,0.758568 0.4378,0.484599 0.63117,1.12999 0.63117,2.106616 0,1.518 -0.57742,2.380623 -1.80811,2.701176 -0.46367,0.120772 -2.38652,0.116305 -2.84569,-0.0066 z m 2.63662,-0.936021 c 0.66057,-0.199622 0.92085,-0.69927 0.92083,-1.767669 -1e-5,-0.7015 -0.0658,-1.020075 -0.27456,-1.329878 -0.32267,-0.478821 -0.77743,-0.606887 -2.04522,-0.575966 -0.82327,0.02008 -0.87987,0.02934 -1.20927,0.197799 -0.27537,0.140829 -0.37315,0.230554 -0.48131,0.441663 -0.1931,0.376897 -0.27245,0.886405 -0.23609,1.515733 0.0599,1.036225 0.40219,1.457546 1.30754,1.609383 0.43551,0.07304 1.65751,0.0179 2.01808,-0.09107 z m 47.22164,0.91378 c -0.81182,-0.212832 -1.34005,-0.598935 -1.61109,-1.177612 -0.1981,-0.422945 -0.15531,-0.472931 0.40479,-0.472931 h 0.46817 l 0.19349,0.244304 c 0.25784,0.325551 0.65662,0.500082 1.32853,0.581455 0.66766,0.08086 1.53183,-0.0022 2.01188,-0.193448 0.65609,-0.261335 0.80807,-0.864922 0.28861,-1.146161 -0.16214,-0.08778 -0.42942,-0.1081 -1.83916,-0.139818 -1.80091,-0.04052 -2.04237,-0.07933 -2.48403,-0.399266 -0.41556,-0.301033 -0.57666,-0.860354 -0.41146,-1.428603 0.25918,-0.89157 1.33048,-1.40801 2.9154,-1.405429 1.32274,0.0022 2.30827,0.4161 2.78668,1.170462 0.2813,0.443559 0.25535,0.477965 -0.36051,0.477965 -0.49009,0 -0.53547,-0.01014 -0.61955,-0.138452 -0.12095,-0.184598 -0.57524,-0.422569 -0.96052,-0.503159 -0.72976,-0.15264 -1.88292,-0.04409 -2.33845,0.220126 -0.23537,0.136517 -0.4137,0.46863 -0.36208,0.67431 0.0817,0.32571 0.25344,0.358139 2.09961,0.39657 1.52405,0.03172 1.70775,0.04646 1.99166,0.159711 0.68468,0.273132 0.97255,0.659559 0.97708,1.311615 0.006,0.885627 -0.58876,1.490243 -1.73726,1.765568 -0.67971,0.162942 -2.1253,0.164415 -2.74179,0.0028 z M 20.412533,29.658471 c -0.112297,-0.05665 -0.251403,-0.184862 -0.309124,-0.284916 -0.183794,-0.318591 -1.57296,-5.03714 -1.492096,-5.06817 0.0395,-0.01516 0.281546,-0.01974 0.537882,-0.01018 l 0.466064,0.01738 0.107408,0.323999 c 0.05907,0.178199 0.358163,1.158569 0.66464,2.178599 0.306478,1.02003 0.582879,1.880247 0.614226,1.911595 0.03672,0.03672 0.07866,0.03532 0.117911,-0.0039 0.0335,-0.0335 0.29992,-0.920231 0.592035,-1.970503 0.292114,-1.050272 0.570995,-1.970497 0.619736,-2.044943 0.167152,-0.25531 0.430735,-0.364928 0.877488,-0.364928 0.45063,0 0.710268,0.10961 0.882583,0.372598 0.05154,0.07867 0.331937,1.000401 0.623096,2.048302 0.291159,1.047902 0.555281,1.931176 0.586938,1.962833 0.03747,0.03747 0.0801,0.03501 0.122162,-0.007 0.03553,-0.03553 0.337987,-0.975276 0.672122,-2.088321 0.334134,-1.113044 0.635769,-2.096616 0.670299,-2.185716 0.06214,-0.160334 0.06832,-0.162 0.60129,-0.162 0.485228,0 0.535488,0.0102 0.507968,0.103091 -0.756763,2.554395 -1.485382,4.906466 -1.552007,5.01007 -0.167363,0.260258 -0.426927,0.364917 -0.905367,0.365057 -0.514895,1.76e-4 -0.797017,-0.113276 -0.951623,-0.382597 -0.0558,-0.0972 -0.316603,-0.958742 -0.579565,-1.914539 -0.594926,-2.162395 -0.581537,-2.120721 -0.681343,-2.120721 -0.04547,0 -0.100693,0.0729 -0.122719,0.161999 -0.300795,1.216794 -1.086121,3.869534 -1.175118,3.969414 -0.06189,0.06946 -0.197833,0.162394 -0.302092,0.206522 -0.274067,0.116 -0.942859,0.103133 -1.192794,-0.02295 z m 11.29106,0.0661 c -0.0228,-0.0228 -0.04146,-1.256457 -0.04146,-2.741453 v -2.699992 h 0.530768 0.530768 l -0.01532,2.724538 -0.01532,2.724537 -0.473992,0.01691 c -0.260696,0.0093 -0.49265,-0.0017 -0.515453,-0.02454 z m 7.439971,-2.167792 c 0,-1.925888 -0.01171,-2.21659 -0.09257,-2.297448 -0.07796,-0.07796 -0.277841,-0.09257 -1.266541,-0.09257 H 36.61048 v -0.442347 -0.442347 l 3.048537,0.01526 3.048536,0.01526 v 0.412362 0.412363 l -1.224614,0.02945 c -1.001828,0.0241 -1.234757,0.04553 -1.280367,0.117818 -0.03244,0.05142 -0.05613,1.005858 -0.05666,2.28272 l -9.02e-4,2.194357 h -0.500726 -0.500725 z m 7.481432,-0.534388 v -2.739265 h 0.500725 0.500726 v 1.026088 c 0,0.564349 0.01609,1.06802 0.03576,1.11927 0.03155,0.08222 0.252527,0.09318 1.878783,0.09318 1.626255,0 1.847231,-0.01096 1.878782,-0.09318 0.01967,-0.05125 0.03576,-0.554921 0.03576,-1.11927 v -1.026088 h 0.500726 0.500726 v 2.739265 2.739264 h -0.500726 -0.500726 v -1.034778 c 0,-0.600646 -0.02558,-1.082584 -0.06098,-1.148724 -0.05824,-0.108822 -0.141581,-0.113945 -1.853558,-0.113945 -1.711978,0 -1.795319,0.0051 -1.853559,0.113945 -0.0354,0.06614 -0.06098,0.548078 -0.06098,1.148724 v 1.034778 h -0.500726 -0.500725 z m 32.676998,2.70218 c -0.0228,-0.0228 -0.04146,-1.044385 -0.04146,-2.270182 0,-1.225796 -0.0066,-2.233986 -0.01473,-2.240423 -0.0081,-0.0064 -0.571416,-0.02632 -1.251814,-0.04418 l -1.237087,-0.03248 v -0.412363 -0.412362 l 3.048536,-0.01526 3.048536,-0.01526 v 0.442347 0.442347 h -1.166921 c -0.841266,0 -1.194643,0.02055 -1.266276,0.07364 -0.08965,0.06644 -0.100823,0.289527 -0.114348,2.282721 l -0.01499,2.209084 -0.473992,0.01691 c -0.260696,0.0093 -0.49265,-0.0017 -0.515453,-0.02454 z m 12.78417,9.37e-4 c -0.02332,-0.02332 -0.0424,-1.258574 -0.0424,-2.745011 v -2.702613 l 2.253266,0.01735 2.253265,0.01735 0.324,0.182976 c 0.4471,0.252497 0.653741,0.590563 0.692556,1.13302 0.03421,0.478077 -0.03814,0.736394 -0.280565,1.001817 -0.09699,0.106198 -0.176285,0.211333 -0.176197,0.233633 0,0.0223 0.09868,0.09356 0.219082,0.158364 0.416922,0.22437 0.644835,0.748213 0.583411,1.340903 -0.06327,0.610477 -0.395403,1.039944 -0.97608,1.262135 -0.234716,0.08981 -0.553154,0.105192 -2.538167,0.122586 -1.248374,0.01094 -2.288853,8.13e-4 -2.312175,-0.02251 z m 4.270001,-0.967662 c 0.309107,-0.08585 0.459225,-0.300376 0.459225,-0.656262 0,-0.36642 -0.165157,-0.552609 -0.537509,-0.605965 -0.14177,-0.02031 -0.907233,-0.02906 -1.70103,-0.01945 l -1.443268,0.01749 -0.01699,0.584896 c -0.0093,0.321693 -0.0035,0.619919 0.01288,0.662725 0.02367,0.06167 0.339044,0.07776 1.519166,0.0775 0.838922,-1.77e-4 1.584603,-0.0268 1.707528,-0.06094 z m -0.03631,-2.43092 c 0.111285,-0.129461 0.142082,-0.23257 0.142082,-0.47573 0,-0.38826 -0.158653,-0.562966 -0.573184,-0.631175 -0.332593,-0.05473 -2.556741,-0.06919 -2.691442,-0.0175 -0.07656,0.02938 -0.09318,0.143192 -0.09318,0.63818 0,0.331333 0.01892,0.621338 0.04203,0.644455 0.02312,0.02312 0.714688,0.03416 1.536821,0.02455 l 1.49479,-0.01749 z m 15.929665,1.087638 c 0,-2.332554 8.3e-4,-2.348699 0.13513,-2.606719 0.096,-0.184514 0.21107,-0.298603 0.39764,-0.394343 0.25918,-0.133008 0.28564,-0.1345 2.08868,-0.117817 1.78871,0.01655 1.83162,0.01975 2.09127,0.155922 0.34472,0.180786 0.56999,0.393818 0.7251,0.685699 0.10419,0.196077 0.12902,0.36243 0.1479,0.990915 0.0225,0.748131 0.0209,0.758833 -0.16216,1.130742 -0.1402,0.284795 -0.24783,0.415367 -0.44569,0.540716 -0.14347,0.09089 -0.26138,0.191763 -0.26201,0.224163 -6.5e-4,0.0324 0.28879,0.403526 0.64318,0.824725 0.3544,0.421199 0.64556,0.798952 0.64702,0.839452 0.002,0.05409 -0.15077,0.07364 -0.57518,0.07364 -0.37505,0 -0.60936,-0.02584 -0.6677,-0.07364 -0.0494,-0.0405 -0.36213,-0.398371 -0.69488,-0.79527 l -0.605,-0.721634 h -1.19516 c -1.0355,0 -1.19995,0.01245 -1.23093,0.09318 -0.0197,0.05125 -0.0358,0.409121 -0.0358,0.79527 v 0.702089 h -0.50073 -0.50073 z m 4.21842,-0.315759 c 0.25348,-0.138826 0.34802,-0.401048 0.34181,-0.947994 -0.004,-0.361376 -0.0303,-0.493165 -0.12312,-0.618544 -0.23299,-0.314872 -0.34228,-0.334929 -1.82809,-0.335514 -1.23412,-4.71e-4 -1.37761,0.0097 -1.47273,0.104589 -0.0884,0.08815 -0.10867,0.232146 -0.12573,0.891733 -0.0135,0.52279 0.003,0.829583 0.0482,0.914752 0.068,0.127071 0.0808,0.127993 1.52252,0.109719 1.23489,-0.01565 1.48154,-0.03354 1.6371,-0.118741 z m 5.70729,2.594535 c -0.0166,-0.04343 -0.0234,-1.271863 -0.0149,-2.729858 l 0.0154,-2.650901 h 2.06181 c 1.99721,0 2.07486,0.0043 2.47852,0.136595 0.88541,0.29023 1.31535,0.845369 1.44543,1.866308 0.0835,0.655345 0.031,1.485972 -0.12591,1.994158 -0.20675,0.669377 -0.71431,1.109635 -1.52517,1.322937 -0.47095,0.123886 -4.29038,0.177419 -4.33513,0.06076 z m 4.07334,-1.014485 c 0.40807,-0.129477 0.6927,-0.445824 0.78922,-0.877173 0.11401,-0.509397 0.0508,-1.600173 -0.11084,-1.913222 -0.1499,-0.290297 -0.45713,-0.512403 -0.83383,-0.602803 -0.41045,-0.0985 -2.59829,-0.151198 -2.75674,-0.0664 -0.12917,0.06913 -0.1298,0.07761 -0.1298,1.763971 0,1.2757 0.0182,1.713333 0.0736,1.770688 0.11305,0.116963 2.55801,0.05514 2.96835,-0.07506 z m 6.74413,1.024111 c -0.25986,-0.0618 -0.47966,-0.229567 -0.62578,-0.477649 -0.11159,-0.189443 -0.11782,-0.30597 -0.11782,-2.202926 0,-1.906095 0.006,-2.014293 0.12123,-2.238539 0.0825,-0.160399 0.20407,-0.277956 0.38066,-0.368181 0.2565,-0.131047 0.28658,-0.132545 2.66222,-0.132545 h 2.40278 v 0.438457 0.438456 l -2.15544,0.01809 -2.15544,0.01809 -0.11471,0.141737 c -0.0974,0.120327 -0.11216,0.218218 -0.0978,0.647998 l 0.0169,0.506261 2.09127,0.02945 2.09126,0.02945 0.0172,0.455797 0.0172,0.455797 -2.10846,0.01547 -2.10846,0.01547 -0.0168,0.530879 c -0.0263,0.83362 -0.24051,0.762082 2.3413,0.781924 l 2.18687,0.01681 -0.0172,0.454464 -0.0172,0.454464 -2.29745,0.009 c -1.2636,0.005 -2.38697,-0.01225 -2.49639,-0.03827 z m 8.91175,-0.02331 c -0.0173,-0.0451 -0.0231,-1.085576 -0.0129,-2.312175 l 0.0186,-2.230179 0.14727,-0.294545 c 0.11274,-0.225463 0.20893,-0.325631 0.41012,-0.42709 0.25471,-0.128442 0.31618,-0.132545 1.98597,-0.132545 1.61399,0 1.74471,0.008 2.06406,0.125827 0.43591,0.16088 0.79161,0.517813 0.92938,0.93262 0.14842,0.446839 0.10636,1.582623 -0.0711,1.920472 -0.12593,0.239723 -0.55406,0.673434 -0.66477,0.673434 -0.14695,0 -0.0135,0.209907 0.58926,0.92675 0.3564,0.423866 0.648,0.799637 0.648,0.835046 0,0.04242 -0.20802,0.06438 -0.60988,0.06438 h -0.60988 l -0.66102,-0.79527 -0.66101,-0.79527 h -1.19697 c -1.03715,0 -1.20176,0.01244 -1.23274,0.09318 -0.0197,0.05125 -0.0358,0.409121 -0.0358,0.79527 v 0.702089 h -0.50258 c -0.37504,0 -0.51055,-0.02081 -0.53404,-0.08199 z m 4.25041,-2.579215 c 0.25348,-0.138962 0.32074,-0.332299 0.32074,-0.921898 0,-0.903678 -0.10839,-0.965 -1.76726,-0.999764 -1.43222,-0.03002 -1.6746,0.01063 -1.73051,0.290189 -0.061,0.304787 -0.0413,1.523228 0.0266,1.650143 0.0613,0.114553 0.11102,0.117804 1.51691,0.09922 1.22373,-0.01618 1.48197,-0.03481 1.6335,-0.117888 z m 13.75198,-4.496223 v -0.79527 h 0.7006 c 0.58452,0 0.70653,0.01544 0.73636,0.09318 0.0197,0.05125 0.0358,0.36719 0.0358,0.702088 0,0.334899 -0.0161,0.65084 -0.0358,0.702089 -0.0298,0.07774 -0.15184,0.09318 -0.73636,0.09318 h -0.7006 z M 55.754934,21.072245 c -2.76198,-0.377247 -4.172198,-1.508229 -4.701397,-3.770475 -0.20995,-0.897506 -0.245908,-1.683111 -0.245959,-5.373667 l -5e-5,-3.54814 0.132545,-0.032612 c 0.0729,-0.017937 0.609708,-0.025069 1.192906,-0.015849 l 1.06036,0.016762 0.03515,3.858534 c 0.02314,2.539936 0.05857,3.982897 0.10369,4.222451 0.223257,1.18538 0.57562,1.741375 1.353377,2.135501 0.712216,0.360913 2.307544,0.540618 3.800829,0.428144 1.823295,-0.13733 2.660822,-0.537179 3.094091,-1.477167 0.371279,-0.8055 0.376254,-0.869759 0.402996,-5.205658 l 0.02425,-3.9319885 0.128795,-0.031671 c 0.07084,-0.017419 0.605956,-0.024128 1.189154,-0.014908 l 1.060361,0.016762 0.01719,3.6818075 c 0.0114,2.441566 -0.005,3.878821 -0.04876,4.266666 -0.09472,0.840005 -0.309326,1.620592 -0.623529,2.268018 -0.230568,0.475091 -0.353539,0.643315 -0.781268,1.068763 -0.418923,0.416692 -0.605421,0.553037 -1.067263,0.780255 -0.640633,0.315181 -1.430694,0.532377 -2.39762,0.65913 -0.827884,0.108526 -2.933188,0.108155 -3.72985,-6.6e-4 z m 32.813208,0.02448 c -1.09623,-0.141105 -2.134618,-0.463687 -2.848323,-0.88485 -0.824984,-0.486829 -1.535743,-1.378602 -1.945961,-2.441546 -0.316966,-0.821302 -0.449387,-1.554125 -0.489062,-2.706449 -0.05829,-1.692928 0.144827,-2.83781 0.709522,-3.999211 0.175048,-0.360026 0.448008,-0.813005 0.606574,-1.00662 0.73457,-0.8969491 1.901939,-1.5230592 3.289797,-1.7644619 0.762729,-0.1326687 4.713862,-0.1332349 5.471083,-7.84e-4 2.005548,0.3508064 3.289274,1.2605449 4.039761,2.8628519 0.464974,0.992735 0.650249,1.9888 0.650249,3.495862 0,1.574563 -0.189546,2.54017 -0.705376,3.593444 -0.158677,0.323999 -0.409146,0.740769 -0.556589,0.926156 -0.813697,1.023059 -2.137109,1.677931 -3.842728,1.901518 -0.740833,0.09712 -3.68576,0.113316 -4.378947,0.02409 z M 93.115651,18.8188 c 1.002099,-0.277554 1.616519,-0.731052 1.966526,-1.451482 0.349996,-0.720401 0.407762,-1.113469 0.407762,-2.774709 0,-1.632772 -0.0553,-1.973576 -0.445722,-2.747005 -0.609248,-1.206911 -2.026314,-1.655519 -4.944444,-1.565288 -1.191144,0.03683 -1.562682,0.08874 -2.255751,0.31514 -0.865154,0.282617 -1.377526,0.754622 -1.685196,1.552433 -0.29772,0.771996 -0.330349,1.02907 -0.325248,2.562537 0.0041,1.248249 0.01929,1.466909 0.129329,1.86721 0.310255,1.128679 0.818533,1.732927 1.771933,2.106499 0.641223,0.251249 1.09494,0.291954 3.07184,0.275588 1.684301,-0.01394 1.897486,-0.02695 2.308971,-0.140923 z m -75.035332,2.030774 c -0.01599,-0.04166 -0.02178,-2.579895 -0.01288,-5.640528 l 0.01619,-5.5647861 0.18446,-0.3893022 c 0.331005,-0.698588 0.72579,-0.8978762 1.788989,-0.9030857 0.711027,-0.00348 0.750168,0.00293 1.137656,0.1864636 0.29812,0.1412032 0.519616,0.3109639 0.861497,0.6602764 0.253111,0.2586126 1.795614,2.134641 3.427784,4.168952 3.165276,3.945149 3.640785,4.494489 3.890429,4.494489 0.324707,0 0.311863,0.181409 0.343695,-4.854285 l 0.02946,-4.6595041 1.06036,-0.016762 c 0.583199,-0.00922 1.120771,-0.0019 1.194605,0.016276 l 0.134244,0.033038 -0.01643,5.6402711 -0.01643,5.640271 -0.194929,0.395904 c -0.141533,0.287457 -0.262558,0.441876 -0.441816,0.563728 -0.383821,0.260903 -0.586765,0.304326 -1.422291,0.304326 -0.710445,0 -0.799735,-0.01237 -1.07327,-0.148677 -0.509861,-0.254074 -1.340433,-1.196893 -4.228247,-4.799671 -1.519257,-1.895394 -2.894636,-3.591971 -3.056397,-3.77017 -0.161762,-0.1782 -0.384833,-0.423408 -0.495714,-0.544908 -0.158245,-0.1734 -0.245188,-0.220908 -0.404273,-0.220908 -0.16335,0 -0.213817,0.02932 -0.260122,0.151107 -0.03554,0.09349 -0.05745,1.901706 -0.05745,4.742167 v 4.59106 h -1.180027 c -0.907177,0 -1.186748,-0.01751 -1.209092,-0.07574 z m 19.018251,-0.04213 c -0.487122,-0.127664 -0.605782,-0.183243 -0.924093,-0.432845 -0.302123,-0.236906 -0.540261,-0.620471 -0.700442,-1.128189 -0.129096,-0.409191 -0.130096,-0.44453 -0.130096,-4.594896 0,-3.892473 0.0075,-4.207044 0.108294,-4.535986 0.293754,-0.958763 0.772718,-1.4191355 1.731353,-1.6641502 0.363512,-0.092909 0.866515,-0.1020031 5.671239,-0.1025342 l 5.272348,-5.827e-4 0.01605,1.0728391 0.01605,1.072839 -4.876033,0.01698 c -4.45649,0.01552 -4.895222,0.02566 -5.099061,0.117946 -0.364974,0.165233 -0.400556,0.324653 -0.382005,1.711498 l 0.01594,1.191886 4.830531,0.02946 4.830531,0.02945 0.01616,1.026542 c 0.01231,0.781826 -0.0017,1.0379 -0.05891,1.074186 -0.04129,0.0262 -2.228929,0.04805 -4.861421,0.04855 l -4.786349,9.02e-4 v 1.209525 c 0,1.305533 0.04183,1.537426 0.304284,1.686998 0.110283,0.06285 1.117955,0.08421 5.085881,0.107832 l 4.948349,0.02945 0.01606,1.075088 0.01606,1.075087 -5.317858,-0.0032 c -5.020354,-0.0031 -5.341635,-0.0095 -5.742857,-0.114627 z M 67.597591,15.84564 c 8.54e-4,-4.257934 0.01515,-5.148821 0.08815,-5.493448 0.219983,-1.038524 0.783203,-1.628164 1.809508,-1.894391 0.308221,-0.079954 0.841907,-0.1002708 3.226392,-0.1228284 3.955379,-0.037418 4.712784,0.030124 5.743619,0.5121942 0.628711,0.2940171 1.025746,0.6256737 1.376124,1.1495358 0.538669,0.8053744 0.681152,1.4900374 0.641106,3.0805764 -0.031,1.23142 -0.09097,1.540986 -0.435001,2.24548 -0.260784,0.534025 -0.781439,1.074037 -1.30042,1.348774 -0.201392,0.106613 -0.381612,0.218825 -0.400481,0.249361 -0.01887,0.03054 0.695968,0.9273 1.588538,1.992809 0.89257,1.06551 1.622852,1.954012 1.622852,1.974451 0,0.02044 -0.65935,0.03716 -1.465218,0.03716 H 78.62754 L 78.399132,20.67435 C 78.273503,20.536318 77.58927,19.727536 76.878605,18.877058 l -1.292114,-1.546325 -2.772601,0.0153 -2.772601,0.0153 -0.02946,1.767268 -0.02945,1.767267 -1.192906,0.01595 -1.192905,0.01595 10e-4,-5.082113 z m 8.836624,-0.755962 c 0.85469,-0.107169 1.318109,-0.402153 1.514276,-0.963891 0.08458,-0.242193 0.10441,-0.494852 0.10441,-1.329903 0,-1.027634 -5.89e-4,-1.032028 -0.176727,-1.38436 -0.208396,-0.416796 -0.48171,-0.627921 -1.001452,-0.77359 -0.30059,-0.08425 -0.75834,-0.10292 -3.060612,-0.12485 -3.038309,-0.02894 -3.378026,-0.01095 -3.613296,0.191322 l -0.159525,0.137153 -0.01761,2.075897 c -0.0097,1.141743 -0.0039,2.111646 0.01288,2.15534 0.02501,0.06518 0.557253,0.07944 2.964598,0.07944 1.717824,0 3.140942,-0.02593 3.433057,-0.06256 z m 24.367345,5.796363 c -0.0216,-0.0216 -0.0393,-2.841974 -0.0393,-6.267497 0,-5.6249823 0.009,-6.2316868 0.0932,-6.2639805 0.15197,-0.058318 6.32294,-0.039608 7.50607,0.022758 2.41946,0.1275375 3.82087,0.582709 4.8049,1.5606105 1.0227,1.016329 1.38853,2.245791 1.39378,4.684128 0.004,1.776153 -0.15612,2.700053 -0.64248,3.711261 -0.22496,0.467714 -0.34778,0.637331 -0.74779,1.032663 -0.87664,0.866419 -2.0178,1.316242 -3.79848,1.4973 -0.66725,0.06785 -8.50401,0.08866 -8.56991,0.02276 z m 8.88543,-2.307627 c 1.34351,-0.320424 1.97424,-0.921821 2.25522,-2.150361 0.13796,-0.603216 0.13584,-2.946785 -0.003,-3.563143 -0.30489,-1.351285 -1.03441,-1.954891 -2.69381,-2.228858 -0.75497,-0.124645 -5.84377,-0.19115 -5.97993,-0.07815 -0.0761,0.06314 -0.0877,0.604765 -0.0877,4.091008 0,2.210027 0.0196,4.037818 0.0435,4.061759 0.0239,0.02394 1.36927,0.03243 2.98963,0.01886 2.76051,-0.02312 2.97949,-0.03263 3.47628,-0.151115 z m 5.93647,2.243809 c 0.0363,-0.12537 4.94078,-10.580375 5.27637,-11.2478217 0.30371,-0.6040415 0.64134,-0.9139682 1.18139,-1.0844453 0.56904,-0.1796272 2.04355,-0.181264 2.59809,-0.00288 0.48078,0.1546559 0.77185,0.3519242 0.99088,0.6715634 0.19771,0.2885068 5.4891,11.5489326 5.4891,11.6811556 0,0.07562 -0.17806,0.08561 -1.28127,0.07194 l -1.28127,-0.01588 -0.17673,-0.354798 c -0.0972,-0.19514 -0.36001,-0.731947 -0.58403,-1.192906 l -0.40731,-0.838107 h -4.02982 -4.02983 l -0.58343,1.207633 -0.58344,1.207632 h -1.30429 c -1.21427,0 -1.30222,-0.0071 -1.27441,-0.10309 z m 10.7642,-4.54419 c 0,-0.106843 -2.54656,-5.459566 -2.64629,-5.562361 -0.10881,-0.112142 -0.35804,-0.144759 -0.57644,-0.07544 -0.0843,0.02676 -0.19495,0.178652 -0.31731,0.435643 -1.34893,2.833292 -2.40976,5.111517 -2.40976,5.17518 0,0.0655 0.51978,0.07936 2.9749,0.07936 1.69703,0 2.9749,-0.0225 2.9749,-0.05239 z m 9.4058,4.608008 c -0.0216,-0.0216 -0.0393,-2.351557 -0.0393,-5.177682 0,-4.631214 -0.009,-5.141938 -0.0932,-5.174166 -0.0513,-0.01967 -1.35079,-0.03576 -2.88786,-0.03576 h -2.79469 l 0.016,-1.0750875 0.0161,-1.0750876 h 6.98071 6.9807 l 0.0161,1.0750876 0.0161,1.0750875 h -2.84663 c -2.1355,0 -2.86429,0.01766 -2.91732,0.07069 -0.0539,0.0539 -0.0707,1.292069 -0.0707,5.213439 v 5.142747 h -1.16836 c -0.6426,0 -1.18604,-0.01767 -1.20763,-0.03927 z m 7.0459,-0.06382 c 0.0286,-0.09887 4.92324,-10.548775 5.29924,-11.3137615 0.24915,-0.5069176 0.64667,-0.856973 1.1556,-1.0175976 0.57203,-0.1805429 2.04488,-0.1826901 2.60102,-0.00379 0.48085,0.1546749 0.77191,0.3519633 0.99079,0.6715633 0.19752,0.2884322 5.48919,11.5494628 5.48919,11.6813858 0,0.07532 -0.17954,0.08537 -1.28126,0.07171 l -1.28127,-0.01588 -0.17673,-0.354798 c -0.0972,-0.19514 -0.36002,-0.731947 -0.58403,-1.192906 L 154.6446,18.51004 h -4.02982 -4.02983 l -0.58343,1.207633 -0.58344,1.207632 h -1.30429 c -1.21427,0 -1.30222,-0.0071 -1.27443,-0.10309 z m 10.76422,-4.54419 c 0,-0.106843 -2.54656,-5.459566 -2.64629,-5.562361 -0.10915,-0.112494 -0.35816,-0.144721 -0.57831,-0.07485 -0.0892,0.02831 -0.20033,0.186915 -0.3465,0.494553 -1.39246,2.930591 -2.3787,5.05173 -2.3787,5.11594 0,0.06515 0.52466,0.0791 2.9749,0.0791 1.69703,0 2.9749,-0.0225 2.9749,-0.05239 z m 6.30326,0.317475 v -0.79527 h 0.7006 c 0.58452,0 0.70653,0.01544 0.73636,0.09318 0.0197,0.05125 0.0358,0.36719 0.0358,0.702088 0,0.334899 -0.0161,0.65084 -0.0358,0.702089 -0.0298,0.07774 -0.15184,0.09318 -0.73636,0.09318 h -0.7006 z"
         id="path3714"/>
      <path
         style="display:inline;fill:#33648e;stroke-width:0.05890891"
         d="m 163.18686,30.017686 c -0.022,-0.02202 -0.0396,-4.310193 -0.039,-9.529277 8.3e-4,-7.887353 0.0149,-9.554648 0.0831,-9.876681 0.19434,-0.9167288 0.68813,-1.6161956 1.39079,-1.9700475 0.96726,-0.4871065 2.84609,-0.500851 3.86982,-0.02831 0.99539,0.4594658 1.61002,1.0928267 4.23029,4.3592425 0.74074,0.923398 1.99613,2.487429 2.78977,3.475626 0.79363,0.988197 2.14548,2.671519 3.00409,3.740716 2.61931,3.261703 2.71659,3.379935 3.21002,3.901465 0.62933,0.66516 0.96144,0.804147 1.29486,0.541882 l 0.15522,-0.122093 V 16.499 c 0,-5.409675 0.0198,-8.0482115 0.061,-8.1251544 0.0584,-0.1092083 0.14385,-0.1139451 2.05459,-0.1139451 1.62131,0 2.0062,0.015152 2.06096,0.081136 0.05,0.060299 0.0632,2.5224715 0.0512,9.5874255 l -0.0161,9.506289 -0.13223,0.465309 c -0.17291,0.608458 -0.47764,1.144262 -0.82491,1.450414 -0.58386,0.51473 -1.02841,0.647248 -2.31244,0.689325 -1.80881,0.05927 -2.25074,-0.108079 -3.447,-1.305297 -0.92299,-0.923735 -1.0347,-1.05641 -3.94642,-4.687013 -1.26025,-1.571395 -2.71835,-3.387263 -3.24023,-4.035261 -0.52188,-0.647998 -1.58939,-1.973448 -2.37223,-2.945445 -1.71158,-2.125119 -2.74514,-3.31753 -2.93972,-3.391506 -0.1657,-0.063 -0.49402,-0.07186 -0.63652,-0.01718 -0.0537,0.02062 -0.1288,0.106773 -0.16682,0.191454 -0.0513,0.114309 -0.0767,2.217487 -0.0986,8.165577 l -0.0294,8.011612 -2.00705,0.01549 c -1.10388,0.0085 -2.02507,-0.0025 -2.04709,-0.02455 z m -3.28002,-7.413466 v -0.79527 h 0.7006 c 0.58452,0 0.70653,0.01544 0.73636,0.09318 0.0197,0.05125 0.0358,0.36719 0.0358,0.702088 0,0.334899 -0.0161,0.65084 -0.0358,0.702089 -0.0298,0.07774 -0.15184,0.09318 -0.73636,0.09318 h -0.7006 z M 55.754934,21.072245 c -2.76198,-0.377247 -4.172198,-1.508229 -4.701397,-3.770475 -0.20995,-0.897506 -0.245908,-1.683111 -0.245959,-5.373667 l -5e-5,-3.54814 0.132545,-0.032612 c 0.0729,-0.017937 0.609708,-0.025069 1.192906,-0.015849 l 1.06036,0.016762 0.03515,3.858534 c 0.02314,2.539936 0.05857,3.982897 0.10369,4.222451 0.223257,1.18538 0.57562,1.741375 1.353377,2.135501 0.712216,0.360913 2.307544,0.540618 3.800829,0.428144 1.823295,-0.13733 2.660822,-0.537179 3.094091,-1.477167 0.371279,-0.8055 0.376254,-0.869759 0.402996,-5.205658 l 0.02425,-3.9319885 0.128795,-0.031671 c 0.07084,-0.017419 0.605956,-0.024128 1.189154,-0.014908 l 1.060361,0.016762 0.01719,3.6818075 c 0.0114,2.441566 -0.005,3.878821 -0.04876,4.266666 -0.09472,0.840005 -0.309326,1.620592 -0.623529,2.268018 -0.230568,0.475091 -0.353539,0.643315 -0.781268,1.068763 -0.418923,0.416692 -0.605421,0.553037 -1.067263,0.780255 -0.640633,0.315181 -1.430694,0.532377 -2.39762,0.65913 -0.827884,0.108526 -2.933188,0.108155 -3.72985,-6.6e-4 z m 32.813208,0.02448 c -1.09623,-0.141105 -2.134618,-0.463687 -2.848323,-0.88485 -0.824984,-0.486829 -1.535743,-1.378602 -1.945961,-2.441546 -0.316966,-0.821302 -0.449387,-1.554125 -0.489062,-2.706449 -0.05829,-1.692928 0.144827,-2.83781 0.709522,-3.999211 0.175048,-0.360026 0.448008,-0.813005 0.606574,-1.00662 0.73457,-0.8969491 1.901939,-1.5230592 3.289797,-1.7644619 0.762729,-0.1326687 4.713862,-0.1332349 5.471083,-7.84e-4 2.005548,0.3508064 3.289274,1.2605449 4.039761,2.8628519 0.464974,0.992735 0.650249,1.9888 0.650249,3.495862 0,1.574563 -0.189546,2.54017 -0.705376,3.593444 -0.158677,0.323999 -0.409146,0.740769 -0.556589,0.926156 -0.813697,1.023059 -2.137109,1.677931 -3.842728,1.901518 -0.740833,0.09712 -3.68576,0.113316 -4.378947,0.02409 z M 93.115651,18.8188 c 1.002099,-0.277554 1.616519,-0.731052 1.966526,-1.451482 0.349996,-0.720401 0.407762,-1.113469 0.407762,-2.774709 0,-1.632772 -0.0553,-1.973576 -0.445722,-2.747005 -0.609248,-1.206911 -2.026314,-1.655519 -4.944444,-1.565288 -1.191144,0.03683 -1.562682,0.08874 -2.255751,0.31514 -0.865154,0.282617 -1.377526,0.754622 -1.685196,1.552433 -0.29772,0.771996 -0.330349,1.02907 -0.325248,2.562537 0.0041,1.248249 0.01929,1.466909 0.129329,1.86721 0.310255,1.128679 0.818533,1.732927 1.771933,2.106499 0.641223,0.251249 1.09494,0.291954 3.07184,0.275588 1.684301,-0.01394 1.897486,-0.02695 2.308971,-0.140923 z m -75.035332,2.030774 c -0.01599,-0.04166 -0.02178,-2.579895 -0.01288,-5.640528 l 0.01619,-5.5647861 0.18446,-0.3893022 c 0.331005,-0.698588 0.72579,-0.8978762 1.788989,-0.9030857 0.711027,-0.00348 0.750168,0.00293 1.137656,0.1864636 0.29812,0.1412032 0.519616,0.3109639 0.861497,0.6602764 0.253111,0.2586126 1.795614,2.134641 3.427784,4.168952 3.165276,3.945149 3.640785,4.494489 3.890429,4.494489 0.324707,0 0.311863,0.181409 0.343695,-4.854285 l 0.02946,-4.6595041 1.06036,-0.016762 c 0.583199,-0.00922 1.120771,-0.0019 1.194605,0.016276 l 0.134244,0.033038 -0.01643,5.6402711 -0.01643,5.640271 -0.194929,0.395904 c -0.141533,0.287457 -0.262558,0.441876 -0.441816,0.563728 -0.383821,0.260903 -0.586765,0.304326 -1.422291,0.304326 -0.710445,0 -0.799735,-0.01237 -1.07327,-0.148677 -0.509861,-0.254074 -1.340433,-1.196893 -4.228247,-4.799671 -1.519257,-1.895394 -2.894636,-3.591971 -3.056397,-3.77017 -0.161762,-0.1782 -0.384833,-0.423408 -0.495714,-0.544908 -0.158245,-0.1734 -0.245188,-0.220908 -0.404273,-0.220908 -0.16335,0 -0.213817,0.02932 -0.260122,0.151107 -0.03554,0.09349 -0.05745,1.901706 -0.05745,4.742167 v 4.59106 h -1.180027 c -0.907177,0 -1.186748,-0.01751 -1.209092,-0.07574 z m 19.018251,-0.04213 c -0.487122,-0.127664 -0.605782,-0.183243 -0.924093,-0.432845 -0.302123,-0.236906 -0.540261,-0.620471 -0.700442,-1.128189 -0.129096,-0.409191 -0.130096,-0.44453 -0.130096,-4.594896 0,-3.892473 0.0075,-4.207044 0.108294,-4.535986 0.293754,-0.958763 0.772718,-1.4191355 1.731353,-1.6641502 0.363512,-0.092909 0.866515,-0.1020031 5.671239,-0.1025342 l 5.272348,-5.827e-4 0.01605,1.0728391 0.01605,1.072839 -4.876033,0.01698 c -4.45649,0.01552 -4.895222,0.02566 -5.099061,0.117946 -0.364974,0.165233 -0.400556,0.324653 -0.382005,1.711498 l 0.01594,1.191886 4.830531,0.02946 4.830531,0.02945 0.01616,1.026542 c 0.01231,0.781826 -0.0017,1.0379 -0.05891,1.074186 -0.04129,0.0262 -2.228929,0.04805 -4.861421,0.04855 l -4.786349,9.02e-4 v 1.209525 c 0,1.305533 0.04183,1.537426 0.304284,1.686998 0.110283,0.06285 1.117955,0.08421 5.085881,0.107832 l 4.948349,0.02945 0.01606,1.075088 0.01606,1.075087 -5.317858,-0.0032 c -5.020354,-0.0031 -5.341635,-0.0095 -5.742857,-0.114627 z M 67.597591,15.84564 c 8.54e-4,-4.257934 0.01515,-5.148821 0.08815,-5.493448 0.219983,-1.038524 0.783203,-1.628164 1.809508,-1.894391 0.308221,-0.079954 0.841907,-0.1002708 3.226392,-0.1228284 3.955379,-0.037418 4.712784,0.030124 5.743619,0.5121942 0.628711,0.2940171 1.025746,0.6256737 1.376124,1.1495358 0.538669,0.8053744 0.681152,1.4900374 0.641106,3.0805764 -0.031,1.23142 -0.09097,1.540986 -0.435001,2.24548 -0.260784,0.534025 -0.781439,1.074037 -1.30042,1.348774 -0.201392,0.106613 -0.381612,0.218825 -0.400481,0.249361 -0.01887,0.03054 0.695968,0.9273 1.588538,1.992809 0.89257,1.06551 1.622852,1.954012 1.622852,1.974451 0,0.02044 -0.65935,0.03716 -1.465218,0.03716 H 78.62754 L 78.399132,20.67435 C 78.273503,20.536318 77.58927,19.727536 76.878605,18.877058 l -1.292114,-1.546325 -2.772601,0.0153 -2.772601,0.0153 -0.02946,1.767268 -0.02945,1.767267 -1.192906,0.01595 -1.192905,0.01595 10e-4,-5.082113 z m 8.836624,-0.755962 c 0.85469,-0.107169 1.318109,-0.402153 1.514276,-0.963891 0.08458,-0.242193 0.10441,-0.494852 0.10441,-1.329903 0,-1.027634 -5.89e-4,-1.032028 -0.176727,-1.38436 -0.208396,-0.416796 -0.48171,-0.627921 -1.001452,-0.77359 -0.30059,-0.08425 -0.75834,-0.10292 -3.060612,-0.12485 -3.038309,-0.02894 -3.378026,-0.01095 -3.613296,0.191322 l -0.159525,0.137153 -0.01761,2.075897 c -0.0097,1.141743 -0.0039,2.111646 0.01288,2.15534 0.02501,0.06518 0.557253,0.07944 2.964598,0.07944 1.717824,0 3.140942,-0.02593 3.433057,-0.06256 z m 24.367345,5.796363 c -0.0216,-0.0216 -0.0393,-2.841974 -0.0393,-6.267497 0,-5.6249823 0.009,-6.2316868 0.0932,-6.2639805 0.15197,-0.058318 6.32294,-0.039608 7.50607,0.022758 2.41946,0.1275375 3.82087,0.582709 4.8049,1.5606105 1.0227,1.016329 1.38853,2.245791 1.39378,4.684128 0.004,1.776153 -0.15612,2.700053 -0.64248,3.711261 -0.22496,0.467714 -0.34778,0.637331 -0.74779,1.032663 -0.87664,0.866419 -2.0178,1.316242 -3.79848,1.4973 -0.66725,0.06785 -8.50401,0.08866 -8.56991,0.02276 z m 8.88543,-2.307627 c 1.34351,-0.320424 1.97424,-0.921821 2.25522,-2.150361 0.13796,-0.603216 0.13584,-2.946785 -0.003,-3.563143 -0.30489,-1.351285 -1.03441,-1.954891 -2.69381,-2.228858 -0.75497,-0.124645 -5.84377,-0.19115 -5.97993,-0.07815 -0.0761,0.06314 -0.0877,0.604765 -0.0877,4.091008 0,2.210027 0.0196,4.037818 0.0435,4.061759 0.0239,0.02394 1.36927,0.03243 2.98963,0.01886 2.76051,-0.02312 2.97949,-0.03263 3.47628,-0.151115 z m 5.93647,2.243809 c 0.0363,-0.12537 4.94078,-10.580375 5.27637,-11.2478217 0.30371,-0.6040415 0.64134,-0.9139682 1.18139,-1.0844453 0.56904,-0.1796272 2.04355,-0.181264 2.59809,-0.00288 0.48078,0.1546559 0.77185,0.3519242 0.99088,0.6715634 0.19771,0.2885068 5.4891,11.5489326 5.4891,11.6811556 0,0.07562 -0.17806,0.08561 -1.28127,0.07194 l -1.28127,-0.01588 -0.17673,-0.354798 c -0.0972,-0.19514 -0.36001,-0.731947 -0.58403,-1.192906 l -0.40731,-0.838107 h -4.02982 -4.02983 l -0.58343,1.207633 -0.58344,1.207632 h -1.30429 c -1.21427,0 -1.30222,-0.0071 -1.27441,-0.10309 z m 10.7642,-4.54419 c 0,-0.106843 -2.54656,-5.459566 -2.64629,-5.562361 -0.10881,-0.112142 -0.35804,-0.144759 -0.57644,-0.07544 -0.0843,0.02676 -0.19495,0.178652 -0.31731,0.435643 -1.34893,2.833292 -2.40976,5.111517 -2.40976,5.17518 0,0.0655 0.51978,0.07936 2.9749,0.07936 1.69703,0 2.9749,-0.0225 2.9749,-0.05239 z m 9.4058,4.608008 c -0.0216,-0.0216 -0.0393,-2.351557 -0.0393,-5.177682 0,-4.631214 -0.009,-5.141938 -0.0932,-5.174166 -0.0513,-0.01967 -1.35079,-0.03576 -2.88786,-0.03576 h -2.79469 l 0.016,-1.0750875 0.0161,-1.0750876 h 6.98071 6.9807 l 0.0161,1.0750876 0.0161,1.0750875 h -2.84663 c -2.1355,0 -2.86429,0.01766 -2.91732,0.07069 -0.0539,0.0539 -0.0707,1.292069 -0.0707,5.213439 v 5.142747 h -1.16836 c -0.6426,0 -1.18604,-0.01767 -1.20763,-0.03927 z m 7.0459,-0.06382 c 0.0286,-0.09887 4.92324,-10.548775 5.29924,-11.3137615 0.24915,-0.5069176 0.64667,-0.856973 1.1556,-1.0175976 0.57203,-0.1805429 2.04488,-0.1826901 2.60102,-0.00379 0.48085,0.1546749 0.77191,0.3519633 0.99079,0.6715633 0.19752,0.2884322 5.48919,11.5494628 5.48919,11.6813858 0,0.07532 -0.17954,0.08537 -1.28126,0.07171 l -1.28127,-0.01588 -0.17673,-0.354798 c -0.0972,-0.19514 -0.36002,-0.731947 -0.58403,-1.192906 L 154.6446,18.51004 h -4.02982 -4.02983 l -0.58343,1.207633 -0.58344,1.207632 h -1.30429 c -1.21427,0 -1.30222,-0.0071 -1.27443,-0.10309 z m 10.76422,-4.54419 c 0,-0.106843 -2.54656,-5.459566 -2.64629,-5.562361 -0.10915,-0.112494 -0.35816,-0.144721 -0.57831,-0.07485 -0.0892,0.02831 -0.20033,0.186915 -0.3465,0.494553 -1.39246,2.930591 -2.3787,5.05173 -2.3787,5.11594 0,0.06515 0.52466,0.0791 2.9749,0.0791 1.69703,0 2.9749,-0.0225 2.9749,-0.05239 z m 6.30326,0.317475 v -0.79527 h 0.7006 c 0.58452,0 0.70653,0.01544 0.73636,0.09318 0.0197,0.05125 0.0358,0.36719 0.0358,0.702088 0,0.334899 -0.0161,0.65084 -0.0358,0.702089 -0.0298,0.07774 -0.15184,0.09318 -0.73636,0.09318 h -0.7006 z"
         id="path3712"/>
    </g>
  </g>
</svg>
